<?xml version="1.0" encoding="UTF-8"?>
<svg xmlns="http://www.w3.org/2000/svg" xmlns:xlink="http://www.w3.org/1999/xlink" width="22pt" height="18pt" viewBox="0 0 22 18" version="1.1">
<g id="surface1">
<path style="fill:hsl(209, 77%, 28%)" d="M 2.441406 17.625 C 3.792969 17.625 4.886719 16.53125 4.886719 15.183594 C 4.886719 14.664062 4.722656 14.183594 4.445312 13.785156 L 6.1875 10.527344 C 6.203125 10.527344 6.214844 10.527344 6.230469 10.527344 C 6.605469 10.527344 6.957031 10.441406 7.277344 10.292969 L 11.074219 13.222656 C 11.046875 13.367188 11.03125 13.519531 11.03125 13.671875 C 11.03125 15.023438 12.125 16.117188 13.472656 16.117188 C 14.824219 16.117188 15.917969 15.023438 15.917969 13.671875 C 15.917969 13.179688 15.769531 12.71875 15.515625 12.332031 L 19.445312 5.445312 C 19.480469 5.445312 19.519531 5.449219 19.558594 5.449219 C 20.90625 5.449219 22 4.355469 22 3.003906 C 22 1.65625 20.90625 0.5625 19.558594 0.5625 C 18.207031 0.5625 17.113281 1.65625 17.113281 3.003906 C 17.113281 3.5 17.261719 3.960938 17.515625 4.34375 L 13.585938 11.234375 C 13.550781 11.230469 13.511719 11.230469 13.472656 11.230469 C 13.101562 11.230469 12.746094 11.3125 12.429688 11.464844 L 8.632812 8.535156 C 8.660156 8.386719 8.675781 8.238281 8.675781 8.082031 C 8.675781 6.734375 7.582031 5.640625 6.230469 5.640625 C 4.882812 5.640625 3.789062 6.734375 3.789062 8.082031 C 3.789062 8.601562 3.949219 9.085938 4.226562 9.480469 L 2.488281 12.742188 C 2.472656 12.742188 2.457031 12.742188 2.441406 12.742188 C 1.09375 12.742188 0 13.835938 0 15.183594 C 0 16.53125 1.09375 17.625 2.441406 17.625 Z M 2.441406 17.625 "/>
</g>
</svg>
